<!-- Generated by IcoMoon.io -->
<svg version="1.1" xmlns="http://www.w3.org/2000/svg" width="24" height="24" viewBox="0 0 24 24">
<title>budget-limit</title>
<path d="M16.119 17.533l2.174 2.174c0.39 0.39 1.024 0.39 1.414 0s0.39-1.024 0-1.414l-13.586-13.586c-0.391-0.391-1.024-0.391-1.414 0s-0.391 1.024 0 1.414l3.343 3.343c0.29 1.885 1.794 3.351 3.67 3.67l2.602 2.602c-0.242 0.828-1.031 1.463-2.014 1.463-0.93 0-1.698-0.576-1.977-1.343-0.226-0.623-0.915-0.944-1.538-0.718s-0.944 0.915-0.718 1.538c0.507 1.394 1.703 2.451 3.17 2.799-0.004 0.041-0.006 0.082-0.006 0.124l0 0.2c0 0.663 0.537 1.2 1.2 1.2s1.2-0.537 1.2-1.2l-0-0.2c0-0.066-0.005-0.13-0.015-0.193 1.038-0.312 1.924-0.984 2.494-1.874zM12.492 6.8c-0.426 0-0.816 0.12-1.141 0.322l-1.717-1.717c0.47-0.38 1.020-0.667 1.618-0.835-0.008-0.056-0.012-0.113-0.012-0.171l0-0.2c0-0.663 0.537-1.2 1.2-1.2s1.2 0.537 1.2 1.2l-0 0.2c0 0.048-0.003 0.096-0.008 0.143 1.432 0.367 2.594 1.41 3.092 2.78 0.227 0.623-0.095 1.311-0.718 1.538s-1.311-0.095-1.538-0.718c-0.279-0.767-1.047-1.343-1.977-1.343z"></path>
</svg>
