<!-- Generated by IcoMoon.io -->
<svg version="1.1" xmlns="http://www.w3.org/2000/svg" width="24" height="24" viewBox="0 0 24 24">
<title>calendar-pause</title>
<path d="M9 12c0-0.552 0.448-1 1-1s1 0.448 1 1v5c0 0.552-0.448 1-1 1s-1-0.448-1-1v-5z"></path>
<path d="M14 11c-0.552 0-1 0.448-1 1v5c0 0.552 0.448 1 1 1s1-0.448 1-1v-5c0-0.552-0.448-1-1-1z"></path>
<path d="M6 3c0-0.552 0.448-1 1-1s1 0.448 1 1v1h8v-1c0-0.552 0.448-1 1-1s1 0.448 1 1v1h1c1.105 0 2 0.895 2 2v14c0 1.105-0.895 2-2 2h-14c-1.105 0-2-0.895-2-2v-14c0-1.105 0.895-2 2-2h1v-1zM19 9h-14v11h14v-11z"></path>
</svg>
