<!-- Generated by IcoMoon.io -->
<svg version="1.1" xmlns="http://www.w3.org/2000/svg" width="24" height="24" viewBox="0 0 24 24">
<title>clicks-limit</title>
<path d="M8.2 19.455c-0.276 0.478-0.112 1.090 0.366 1.366s1.090 0.112 1.366-0.366l3.125-5.412 4.547 4.547c0.548 0.548 1.436 0.548 1.984 0s0.548-1.436 0-1.984l-5.079-5.079 0.799-1.384 2.494-0.167c1.125-0.075 1.36-1.628 0.307-2.032l-1.253-0.482 2.076-3.595c0.276-0.478 0.112-1.090-0.366-1.366s-1.090-0.112-1.366 0.366l-9 15.588z"></path>
<path d="M5.432 4.072l7.67 2.946-5.052 8.751-3.977-10.337c-0.327-0.851 0.508-1.687 1.36-1.36z"></path>
</svg>
