<svg width="24" height="24" viewBox="0 0 24 24" fill="none" xmlns="http://www.w3.org/2000/svg">
<path d="M9.17146 7.75737C8.78094 7.36685 8.14777 7.36685 7.75725 7.75737C7.36672 8.1479 7.36672 8.78106 7.75725 9.17158L10.5857 12L7.75725 14.8284C7.36672 15.219 7.36672 15.8521 7.75725 16.2427C8.14777 16.6332 8.78094 16.6332 9.17146 16.2427L11.9999 13.4142L14.8283 16.2427C15.2188 16.6332 15.852 16.6332 16.2425 16.2427C16.6331 15.8521 16.6331 15.219 16.2425 14.8284L13.4141 12L16.2425 9.17158C16.6331 8.78106 16.6331 8.1479 16.2425 7.75737C15.852 7.36685 15.2188 7.36685 14.8283 7.75737L11.9999 10.5858L9.17146 7.75737Z" fill="#6C6B80"/>
</svg>
