<!-- Generated by IcoMoon.io -->
<svg version="1.1" xmlns="http://www.w3.org/2000/svg" width="24" height="24" viewBox="0 0 24 24">
<title>exit</title>
<path d="M3 5c0-1.105 0.895-2 2-2h14c1.105 0 2 0.895 2 2v14c0 1.105-0.895 2-2 2h-14c-1.105 0-2-0.895-2-2v-3c0-0.552 0.448-1 1-1s1 0.448 1 1v3h14v-14h-14v3c0 0.552-0.448 1-1 1s-1-0.448-1-1v-3z"></path>
<path d="M3 12c0-0.552 0.448-1 1-1h8.586l-2.293-2.293c-0.391-0.391-0.391-1.024 0-1.414s1.024-0.391 1.414 0l4 4c0.39 0.39 0.39 1.024 0 1.414l-4 4c-0.39 0.39-1.024 0.39-1.414 0s-0.391-1.024 0-1.414l2.293-2.293h-8.586c-0.552 0-1-0.448-1-1z"></path>
</svg>
