<!-- Generated by IcoMoon.io -->
<svg version="1.1" xmlns="http://www.w3.org/2000/svg" width="24" height="24" viewBox="0 0 24 24">
<title>eye-pause</title>
<path d="M9 10c0-0.552 0.448-1 1-1s1 0.448 1 1v4c0 0.552-0.448 1-1 1s-1-0.448-1-1v-4z"></path>
<path d="M13 10c0-0.552 0.448-1 1-1s1 0.448 1 1v4c0 0.552-0.448 1-1 1s-1-0.448-1-1v-4z"></path>
<path d="M23 12c0-2.857-4.925-8-11-8s-11 5.143-11 8c0 2.857 4.925 8 11 8s11-5.143 11-8zM18 12c0 3.314-2.686 6-6 6s-6-2.686-6-6c0-3.314 2.686-6 6-6s6 2.686 6 6z"></path>
</svg>
