<!-- Generated by IcoMoon.io -->
<svg version="1.1" xmlns="http://www.w3.org/2000/svg" width="24" height="24" viewBox="0 0 24 24">
<title>eye</title>
<path d="M3.199 12c1.822 3.563 5.528 6 9.801 6s7.979-2.437 9.801-6c-1.822-3.563-5.528-6-9.801-6s-7.979 2.437-9.801 6zM1.179 11.583c2.053-4.473 6.573-7.583 11.821-7.583s9.768 3.11 11.821 7.583l0.191 0.417-0.191 0.417c-2.053 4.473-6.573 7.583-11.821 7.583s-9.768-3.11-11.821-7.583l-0.191-0.417 0.191-0.417zM13 10c-1.105 0-2 0.895-2 2s0.895 2 2 2c1.104 0 2-0.895 2-2s-0.896-2-2-2zM9 12c0-2.209 1.791-4 4-4s4 1.791 4 4c0 2.209-1.791 4-4 4s-4-1.791-4-4z"></path>
</svg>
