<svg width="24" height="24" viewBox="0 0 24 24" fill="none" xmlns="http://www.w3.org/2000/svg">
<path d="M8.5 6C4.91015 6 2 8.91015 2 12.5C2 16.0899 4.91015 19 8.5 19H9C9.55228 19 10 18.5523 10 18V17C10 16.4477 9.55228 16 9 16H8.5C6.567 16 5 14.433 5 12.5C5 10.567 6.567 9 8.5 9H9C9.55228 9 10 8.55228 10 8V7C10 6.44772 9.55228 6 9 6H8.5Z" fill="#797985"/>
<path d="M15 19C14.4477 19 14 18.5523 14 18V17C14 16.4477 14.4477 16 15 16H15.5C17.433 16 19 14.433 19 12.5C19 10.567 17.433 9 15.5 9H15C14.4477 9 14 8.55228 14 8V7C14 6.44772 14.4477 6 15 6H15.5C19.0899 6 22 8.91015 22 12.5C22 16.0899 19.0899 19 15.5 19H15Z" fill="#797985"/>
<path d="M10.5 11C9.67157 11 9 11.6716 9 12.5C9 13.3284 9.67157 14 10.5 14H13.5C14.3284 14 15 13.3284 15 12.5C15 11.6716 14.3284 11 13.5 11H10.5Z" fill="#797985"/>
</svg>
