<!-- Generated by IcoMoon.io -->
<svg version="1.1" xmlns="http://www.w3.org/2000/svg" width="24" height="24" viewBox="0 0 24 24">
<title>advertisements2</title>
<path d="M6 6c0.552 0 1 0.448 1 1v2c0 0.552-0.448 1-1 1h-2c-0.552 0-1-0.448-1-1v-2c0-0.552 0.448-1 1-1h2z"></path>
<path d="M6 14c0.552 0 1 0.448 1 1v2c0 0.552-0.448 1-1 1h-2c-0.552 0-1-0.448-1-1v-2c0-0.552 0.448-1 1-1h2z"></path>
<path d="M19 14c0.552 0 1 0.448 1 1v2c0 0.552-0.448 1-1 1h-8c-0.552 0-1-0.448-1-1v-2c0-0.552 0.448-1 1-1h8z"></path>
<path d="M19 6c0.552 0 1 0.448 1 1v2c0 0.552-0.448 1-1 1h-8c-0.552 0-1-0.448-1-1v-2c0-0.552 0.448-1 1-1h8z"></path>
</svg>
