<!-- Generated by IcoMoon.io -->
<svg version="1.1" xmlns="http://www.w3.org/2000/svg" width="24" height="24" viewBox="0 0 24 24">
<title>advertiser</title>
<path d="M17 2.382l-7.236 3.618h-4.764c-2.761 0-5 2.239-5 5 0 1.918 1.080 3.584 2.665 4.422-0.104 0.342-0.117 0.717-0.016 1.095l1.084 4.044c0.286 1.067 1.383 1.7 2.45 1.414l1.932-0.518c1.067-0.286 1.7-1.383 1.414-2.45l-0.806-3.009h1.042l7.236 3.618v-17.236zM5 14c-1.657 0-3-1.343-3-3s1.343-3 3-3h4v6h-4zM6.651 16l0.945 3.527-1.932 0.518-1.084-4.044h2.071zM11 14.382v-6.764l4-2v10.764l-4-2z"></path>
<path d="M20 10c-0.552 0-1 0.448-1 1s0.448 1 1 1h3c0.552 0 1-0.448 1-1s-0.448-1-1-1h-3z"></path>
<path d="M18.958 6.811c-0.39-0.391-0.39-1.024 0-1.414l2.121-2.121c0.39-0.391 1.024-0.391 1.414 0s0.39 1.024 0 1.414l-2.121 2.121c-0.39 0.391-1.024 0.391-1.414 0z"></path>
<path d="M18.958 16.604c-0.39-0.391-0.39-1.024 0-1.414s1.024-0.39 1.414 0l2.121 2.121c0.39 0.39 0.39 1.024 0 1.414s-1.024 0.39-1.414 0l-2.121-2.121z"></path>
</svg>
