<svg width="24" height="24" viewBox="0 0 24 24" fill="none" xmlns="http://www.w3.org/2000/svg">
<path d="M12.5 3C11.6716 3 11 3.67157 11 4.5C11 4.58478 11.007 4.66791 11.0205 4.74885C9.26203 5.36077 8 7.033 8 9C8 11.4853 10.0147 13.5 12.5 13.5C13.3284 13.5 14 14.1716 14 15C14 15.8284 13.3284 16.5 12.5 16.5C11.8492 16.5 11.2916 16.0848 11.085 15.5001C10.8089 14.7191 9.95191 14.3097 9.17084 14.5857C8.38976 14.8618 7.98038 15.7188 8.25645 16.4999C8.71039 17.7842 9.73143 18.8026 11.0205 19.2512C11.007 19.3321 11 19.4152 11 19.5C11 20.3284 11.6716 21 12.5 21C13.3284 21 14 20.3284 14 19.5C14 19.4152 13.993 19.3321 13.9794 19.2511C15.738 18.6392 17 16.967 17 15C17 12.5147 14.9853 10.5 12.5 10.5C11.6716 10.5 11 9.82843 11 9C11 8.17157 11.6716 7.5 12.5 7.5C13.1508 7.5 13.7084 7.91525 13.915 8.49987C14.1911 9.28094 15.0481 9.69033 15.8292 9.41426C16.6102 9.13819 17.0196 8.2812 16.7436 7.50013C16.2896 6.21581 15.2686 5.19744 13.9795 4.74882C13.993 4.66789 14 4.58477 14 4.5C14 3.67157 13.3284 3 12.5 3Z" fill="#797985"/>
</svg>
