<svg width="24" height="24" viewBox="0 0 24 24" fill="none" xmlns="http://www.w3.org/2000/svg">
<path d="M20.6125 14.6126C20.0081 16.6051 18.7315 18.3264 17.0002 19.4832C15.2689 20.64 13.1901 21.1608 11.1179 20.9567C9.04575 20.7526 7.10845 19.8363 5.63612 18.364C5.24559 17.9735 5.24559 17.3403 5.63612 16.9498C6.02664 16.5592 6.6598 16.5592 7.05033 16.9498C8.19548 18.0949 9.70227 18.8076 11.314 18.9663C12.9256 19.125 14.5425 18.72 15.8891 17.8203C17.2356 16.9206 18.2285 15.5818 18.6987 14.032C19.1688 12.4823 19.087 10.8174 18.4672 9.32123C17.8475 7.82502 16.7281 6.58999 15.2999 5.82657C13.8716 5.06314 12.2228 4.81857 10.6344 5.13452C9.04608 5.45046 7.6164 6.30738 6.589 7.55926C5.70364 8.63808 5.16423 9.9527 5.03202 11.332L5.53553 10.8285C5.92606 10.4379 6.55922 10.4379 6.94975 10.8285C7.34027 11.219 7.34027 11.8521 6.94975 12.2427L5.53553 13.6569C4.75449 14.4379 3.48816 14.4379 2.70711 13.6569L1.29289 12.2427C0.902369 11.8521 0.902369 11.219 1.29289 10.8285C1.68342 10.4379 2.31658 10.4379 2.70711 10.8285L3.03929 11.1606C3.20604 9.38017 3.90047 7.68263 5.04298 6.29047C6.36392 4.68091 8.20208 3.57916 10.2443 3.17295C12.2865 2.76673 14.4063 3.08118 16.2426 4.06272C18.079 5.04426 19.5182 6.63216 20.315 8.55586C21.1118 10.4796 21.217 12.62 20.6125 14.6126Z" fill="#B2B4BF"/>
<path d="M12 7.50002C11.5858 7.50002 11.25 7.83581 11.25 8.25002C11.25 8.29241 11.2535 8.33398 11.2603 8.37445C10.381 8.68041 9.74998 9.51652 9.74998 10.5C9.74998 11.7427 10.7573 12.75 12 12.75C12.4142 12.75 12.75 13.0858 12.75 13.5C12.75 13.9142 12.4142 14.25 12 14.25C11.6746 14.25 11.3958 14.0424 11.2925 13.7501C11.1544 13.3596 10.7259 13.1549 10.3354 13.2929C9.94486 13.4309 9.74017 13.8594 9.87821 14.25C10.1052 14.8921 10.6157 15.4013 11.2603 15.6256C11.2535 15.6661 11.25 15.7076 11.25 15.75C11.25 16.1642 11.5858 16.5 12 16.5C12.4142 16.5 12.75 16.1642 12.75 15.75C12.75 15.7076 12.7465 15.6661 12.7397 15.6256C13.619 15.3196 14.25 14.4835 14.25 13.5C14.25 12.2574 13.2426 11.25 12 11.25C11.5858 11.25 11.25 10.9142 11.25 10.5C11.25 10.0858 11.5858 9.75002 12 9.75002C12.3254 9.75002 12.6042 9.95765 12.7075 10.25C12.8455 10.6405 13.274 10.8452 13.6646 10.7072C14.0551 10.5691 14.2598 10.1406 14.1218 9.75009C13.8948 9.10793 13.3843 8.59874 12.7397 8.37443C12.7465 8.33397 12.75 8.29241 12.75 8.25002C12.75 7.83581 12.4142 7.50002 12 7.50002Z" fill="#B2B4BF"/>
</svg>
