<?xml version="1.0" encoding="utf-8"?>
<!-- Generator: Adobe Illustrator 23.1.1, SVG Export Plug-In . SVG Version: 6.00 Build 0)  -->
<svg version="1.1" id="Layer_1" xmlns="http://www.w3.org/2000/svg" xmlns:xlink="http://www.w3.org/1999/xlink" x="0px" y="0px"
	 viewBox="0 0 24 24" style="enable-background:new 0 0 24 24;" xml:space="preserve">
<style type="text/css">
	.st0{fill-rule:evenodd;clip-rule:evenodd;fill:#B2B4BF;}
</style>
<path class="st0" d="M12,8c-2.2,0-4,1.8-4,4c0,2.2,1.8,4,4,4s4-1.8,4-4C16,9.8,14.2,8,12,8z M12,14c-1.1,0-2-0.9-2-2
	c0-1.1,0.9-2,2-2s2,0.9,2,2C14,13.1,13.1,14,12,14z M12,8c-2.2,0-4,1.8-4,4c0,2.2,1.8,4,4,4s4-1.8,4-4C16,9.8,14.2,8,12,8z M12,14
	c-1.1,0-2-0.9-2-2c0-1.1,0.9-2,2-2s2,0.9,2,2C14,13.1,13.1,14,12,14z M12,8c-2.2,0-4,1.8-4,4c0,2.2,1.8,4,4,4s4-1.8,4-4
	C16,9.8,14.2,8,12,8z M12,14c-1.1,0-2-0.9-2-2c0-1.1,0.9-2,2-2s2,0.9,2,2C14,13.1,13.1,14,12,14z M12,8c-2.2,0-4,1.8-4,4
	c0,2.2,1.8,4,4,4s4-1.8,4-4C16,9.8,14.2,8,12,8z M12,14c-1.1,0-2-0.9-2-2c0-1.1,0.9-2,2-2s2,0.9,2,2C14,13.1,13.1,14,12,14z
	 M22.9,10.2l-2.6-1.6l0.7-3c-0.7-1-1.6-1.8-2.5-2.5l-3,0.7l-1.6-2.6c-1.2-0.2-2.4-0.2-3.6,0L8.6,3.7L5.6,3C4.6,3.8,3.8,4.6,3,5.6
	l0.7,3l-2.6,1.6c-0.2,1.2-0.2,2.4,0,3.6l2.6,1.6l-0.7,3c0.7,1,1.6,1.9,2.5,2.6l3-0.7l1.6,2.6c1.2,0.2,2.4,0.2,3.6,0l1.6-2.6l3,0.7
	c1-0.7,1.8-1.6,2.6-2.6l-0.7-3l2.6-1.6C23.1,12.6,23.1,11.4,22.9,10.2z M21,12.6l-3,1.9l0.8,3.5c-0.3,0.3-0.6,0.6-0.9,0.9L14.5,18
	l-1.9,3h-1.2l-1.9-3l-3.5,0.8c-0.3-0.3-0.6-0.6-0.9-0.9L6,14.5l-3-1.9v-1.2l3-1.9L5.2,6.1c0.3-0.3,0.6-0.6,0.9-0.9L9.5,6l1.9-3h1.2
	l1.9,3l3.4-0.8c0.3,0.3,0.6,0.6,0.9,0.9L18,9.5l3,1.9V12.6z M12,8c-2.2,0-4,1.8-4,4c0,2.2,1.8,4,4,4s4-1.8,4-4C16,9.8,14.2,8,12,8z
	 M12,14c-1.1,0-2-0.9-2-2c0-1.1,0.9-2,2-2s2,0.9,2,2C14,13.1,13.1,14,12,14z M12,8c-2.2,0-4,1.8-4,4c0,2.2,1.8,4,4,4s4-1.8,4-4
	C16,9.8,14.2,8,12,8z M12,14c-1.1,0-2-0.9-2-2c0-1.1,0.9-2,2-2s2,0.9,2,2C14,13.1,13.1,14,12,14z M12,8c-2.2,0-4,1.8-4,4
	c0,2.2,1.8,4,4,4s4-1.8,4-4C16,9.8,14.2,8,12,8z M12,14c-1.1,0-2-0.9-2-2c0-1.1,0.9-2,2-2s2,0.9,2,2C14,13.1,13.1,14,12,14z"/>
</svg>
