<!-- Generated by IcoMoon.io -->
<svg version="1.1" xmlns="http://www.w3.org/2000/svg" width="24" height="24" viewBox="0 0 24 24">
<title>site-blocked</title>
<path d="M8.684 3c-0.265 0-0.52 0.105-0.707 0.293l-4.684 4.684c-0.188 0.188-0.293 0.442-0.293 0.707v6.632c0 0.265 0.105 0.52 0.293 0.707l4.684 4.684c0.188 0.188 0.442 0.293 0.707 0.293h6.633c0.264 0 0.517-0.104 0.704-0.29 1.499-1.492 3.869-3.868 4.688-4.689 0.187-0.187 0.29-0.439 0.29-0.704v-6.632c0-0.265-0.105-0.52-0.293-0.707l-4.684-4.684c-0.188-0.188-0.442-0.293-0.707-0.293h-6.632zM15.535 8.464c0.39 0.391 0.39 1.024 0 1.414l-2.121 2.121 2.121 2.121c0.39 0.39 0.39 1.024 0 1.414s-1.024 0.391-1.414 0l-2.121-2.121-2.121 2.121c-0.391 0.391-1.024 0.391-1.414 0s-0.391-1.024 0-1.414l2.121-2.121-2.121-2.121c-0.391-0.391-0.391-1.024 0-1.414s1.024-0.391 1.414 0l2.121 2.121 2.121-2.121c0.39-0.391 1.024-0.391 1.414 0z"></path>
</svg>
