<!-- Generated by IcoMoon.io -->
<svg version="1.1" xmlns="http://www.w3.org/2000/svg" width="24" height="24" viewBox="0 0 24 24">
<title>statistics</title>
<path d="M18 6c-0.552 0-1 0.448-1 1v10c0 0.552 0.448 1 1 1s1-0.448 1-1v-10c0-0.552-0.448-1-1-1z"></path>
<path d="M14 12c-0.552 0-1 0.448-1 1v4c0 0.552 0.448 1 1 1s1-0.448 1-1v-4c0-0.552-0.448-1-1-1z"></path>
<path d="M5 15c0-0.552 0.448-1 1-1s1 0.448 1 1v2c0 0.552-0.448 1-1 1s-1-0.448-1-1v-2z"></path>
<path d="M10 10c-0.552 0-1 0.448-1 1v6c0 0.552 0.448 1 1 1s1-0.448 1-1v-6c0-0.552-0.448-1-1-1z"></path>
</svg>
