<!-- Generated by IcoMoon.io -->
<svg version="1.1" xmlns="http://www.w3.org/2000/svg" width="24" height="24" viewBox="0 0 24 24">
<title>website</title>
<path d="M4 2h16c1.105 0 2 0.895 2 2v15c0 1.105-0.895 2-2 2h-16c-1.105 0-2-0.895-2-2v-15c0-1.105 0.895-2 2-2zM20 6v-2h-16v2h16zM20 8h-16v11h16v-11z"></path>
<path d="M7 12c0-0.552 0.448-1 1-1h8c0.552 0 1 0.448 1 1s-0.448 1-1 1h-8c-0.552 0-1-0.448-1-1z"></path>
<path d="M7 15c0-0.552 0.448-1 1-1h4c0.552 0 1 0.448 1 1s-0.448 1-1 1h-4c-0.552 0-1-0.448-1-1z"></path>
</svg>
