<!-- Generated by IcoMoon.io -->
<svg version="1.1" xmlns="http://www.w3.org/2000/svg" width="24" height="24" viewBox="0 0 24 24">
<title>widget</title>
<path d="M4 3c-1.105 0-2 0.895-2 2v4c0 1.105 0.895 2 2 2h4c1.105 0 2-0.895 2-2v-4c0-1.105-0.895-2-2-2h-4zM4 5h4v4h-4v-4z"></path>
<path d="M13 4c-0.552 0-1 0.448-1 1s0.448 1 1 1h8c0.552 0 1-0.448 1-1s-0.448-1-1-1h-8z"></path>
<path d="M12 9c0-0.552 0.448-1 1-1h6c0.552 0 1 0.448 1 1s-0.448 1-1 1h-6c-0.552 0-1-0.448-1-1z"></path>
<path d="M4 13c-1.105 0-2 0.895-2 2v4c0 1.105 0.895 2 2 2h4c1.105 0 2-0.895 2-2v-4c0-1.105-0.895-2-2-2h-4zM4 15h4v4h-4v-4z"></path>
<path d="M13 14c-0.552 0-1 0.448-1 1s0.448 1 1 1h8c0.552 0 1-0.448 1-1s-0.448-1-1-1h-8z"></path>
<path d="M12 19c0-0.552 0.448-1 1-1h6c0.552 0 1 0.448 1 1s-0.448 1-1 1h-6c-0.552 0-1-0.448-1-1z"></path>
</svg>
