<svg width="24" height="24" viewBox="0 0 24 24" fill="none" xmlns="http://www.w3.org/2000/svg">
<path fill-rule="evenodd" clip-rule="evenodd" d="M16.1111 6.01732H7.88889L7.88889 4.77778C7.88889 4.34822 7.54067 4 7.11111 4C6.68156 4 6.33333 4.34822 6.33333 4.77778L6.33333 6.01732H5.55556C4.69222 6.01732 4.00778 6.73732 4.00778 7.61732L4 18.4C4 19.28 4.69222 20 5.55556 20H18.4444C19.3 20 20 19.28 20 18.4V7.61732C20 6.73732 19.3 6.01732 18.4444 6.01732H17.6667L17.6667 4.77778C17.6667 4.34822 17.3184 4 16.8889 4C16.4593 4 16.1111 4.34822 16.1111 4.77778V6.01732ZM6 10H18V18H6V10Z" fill="#6C6B80"/>
</svg>
