<?xml version="1.0" encoding="utf-8"?>
<!-- Generator: Adobe Illustrator 23.0.2, SVG Export Plug-In . SVG Version: 6.00 Build 0)  -->
<svg version="1.1" id="Layer_1" xmlns="http://www.w3.org/2000/svg" xmlns:xlink="http://www.w3.org/1999/xlink" x="0px" y="0px"
	 viewBox="0 0 24 24" style="enable-background:new 0 0 24 24;" xml:space="preserve">
<style type="text/css">
	.st0{fill-rule:evenodd;clip-rule:evenodd;fill:#6C6B80;}
</style>
<path class="st0" d="M12,0C5.4,0,0,5.4,0,12c0,6.6,5.4,12,12,12s12-5.4,12-12C24,5.4,18.6,0,12,0z M12,22c-3.3,0-6.3-1.6-8.1-4.2
	l2-1.1c0.5-0.3,0.6-0.9,0.4-1.4c-0.3-0.5-0.9-0.6-1.4-0.4l-2,1.1C2.3,14.9,2,13.5,2,12c0-1.5,0.3-2.9,0.9-4.1l2,1.1
	c0.5,0.3,1.1,0.1,1.4-0.4c0.3-0.5,0.1-1.1-0.4-1.4l-2-1.1C5.5,3.9,8.1,2.3,11,2.1v2.3c0,0.6,0.4,1,1,1s1-0.4,1-1V2.1
	c2.9,0.3,5.5,1.8,7.1,4.1l-2,1.1c-0.5,0.3-0.6,0.9-0.4,1.4C18,9.1,18.7,9.3,19.1,9l2-1.1C21.7,9.1,22,10.5,22,12
	c0,1.5-0.3,2.9-0.9,4.1l-2-1.1c-0.5-0.3-1.1-0.1-1.4,0.4c-0.3,0.5-0.1,1.1,0.4,1.4l2,1.1C18.3,20.4,15.3,22,12,22z M14.3,8.3
	l-2.2,2.2c0,0-0.1,0-0.1,0c-0.8,0-1.5,0.7-1.5,1.5s0.7,1.5,1.5,1.5s1.5-0.7,1.5-1.5c0,0,0-0.1,0-0.1l2.2-2.2c0.4-0.4,0.4-1,0-1.4
	C15.3,7.9,14.7,7.9,14.3,8.3z"/>
</svg>
