<svg width="24" height="24" viewBox="0 0 24 24" fill="none" xmlns="http://www.w3.org/2000/svg">
<path fill-rule="evenodd" clip-rule="evenodd" d="M14.7925 16.2975C14.3996 15.9074 14.3981 15.2719 14.7896 14.8804L16.67 13H8C7.44771 13 7 12.5523 7 12C7 11.4477 7.44772 11 8 11H16.67L14.7896 9.11961C14.3981 8.72811 14.3996 8.09262 14.7925 7.70251C15.1834 7.31434 15.8151 7.31506 16.2046 7.70461L20.5 12L16.2046 16.2954C15.8151 16.6849 15.1834 16.6857 14.7925 16.2975ZM19 3C20.1046 3 21 3.89543 21 5V9.67L19 7.67V5H5V19H19V16.33L21 14.33V19C21 20.1046 20.1046 21 19 21H5C3.89 21 3 20.1 3 19V5C3 3.89 3.89 3 5 3H19Z" fill="#6C6B80"/>
</svg>
