<?xml version="1.0" encoding="utf-8"?>
<!-- Generator: Adobe Illustrator 23.0.2, SVG Export Plug-In . SVG Version: 6.00 Build 0)  -->
<svg version="1.1" id="Layer_1" xmlns="http://www.w3.org/2000/svg" xmlns:xlink="http://www.w3.org/1999/xlink" x="0px" y="0px"
	 viewBox="0 0 24 24" style="enable-background:new 0 0 24 24;" xml:space="preserve">
<style type="text/css">
	.st0{fill:#6C6B80;}
</style>
<path class="st0" d="M16.9,9.4c0.4-0.4,0.4-1,0-1.4L12,3L7.1,7.9c-0.4,0.4-0.4,1,0,1.4c0.4,0.4,1,0.4,1.4,0L11,6.8V14
	c0,0.6,0.4,1,1,1s1-0.4,1-1V6.8l2.5,2.5C15.9,9.8,16.6,9.8,16.9,9.4z M5,14c0-0.6,0.4-1,1-1s1,0.4,1,1v5h10v-5c0-0.6,0.4-1,1-1
	s1,0.4,1,1v6c0,0.6-0.4,1-1,1H6c-0.6,0-1-0.4-1-1V14z"/>
</svg>
