<svg width="24" height="24" viewBox="0 0 24 24" fill="none" xmlns="http://www.w3.org/2000/svg">
<path d="M7 15C7 14.4477 6.55228 14 6 14V14C5.44772 14 5 14.4477 5 15V18C5 18.5523 5.44772 19 6 19H9C9.55228 19 10 18.5523 10 18V18C10 17.4477 9.55228 17 9 17H7V15ZM5 9C5 9.55228 5.44772 10 6 10V10C6.55228 10 7 9.55228 7 9V7H9C9.55228 7 10 6.55228 10 6V6C10 5.44772 9.55228 5 9 5H6C5.44772 5 5 5.44772 5 6V9ZM17 17H15C14.4477 17 14 17.4477 14 18V18C14 18.5523 14.4477 19 15 19H18C18.5523 19 19 18.5523 19 18V15C19 14.4477 18.5523 14 18 14V14C17.4477 14 17 14.4477 17 15V17ZM15 5C14.4477 5 14 5.44772 14 6V6C14 6.55228 14.4477 7 15 7H17V9C17 9.55228 17.4477 10 18 10V10C18.5523 10 19 9.55228 19 9V6C19 5.44772 18.5523 5 18 5H15Z" fill="#6C6B80"/>
</svg>
