<svg width="24" height="24" viewBox="0 0 24 24" fill="none" xmlns="http://www.w3.org/2000/svg">
<path d="M5 15C5 15.5523 5.44772 16 6 16H8V18C8 18.5523 8.44772 19 9 19V19C9.55228 19 10 18.5523 10 18V15C10 14.4477 9.55228 14 9 14H6C5.44772 14 5 14.4477 5 15V15ZM8 8H6C5.44772 8 5 8.44772 5 9V9C5 9.55228 5.44772 10 6 10H9C9.55228 10 10 9.55228 10 9V6C10 5.44772 9.55228 5 9 5V5C8.44772 5 8 5.44772 8 6V8ZM14 18C14 18.5523 14.4477 19 15 19V19C15.5523 19 16 18.5523 16 18V16H18C18.5523 16 19 15.5523 19 15V15C19 14.4477 18.5523 14 18 14H15C14.4477 14 14 14.4477 14 15V18ZM16 8V6C16 5.44772 15.5523 5 15 5V5C14.4477 5 14 5.44772 14 6V9C14 9.55228 14.4477 10 15 10H18C18.5523 10 19 9.55228 19 9V9C19 8.44772 18.5523 8 18 8H16Z" fill="#6C6B80"/>
</svg>
