<?xml version="1.0" encoding="utf-8"?>
<!-- Generator: Adobe Illustrator 23.0.2, SVG Export Plug-In . SVG Version: 6.00 Build 0)  -->
<svg version="1.1" id="Layer_1" xmlns="http://www.w3.org/2000/svg" xmlns:xlink="http://www.w3.org/1999/xlink" x="0px" y="0px"
	 viewBox="0 0 24 24" style="enable-background:new 0 0 24 24;" xml:space="preserve">
<style type="text/css">
	.st0{fill-rule:evenodd;clip-rule:evenodd;fill:#6C6B80;}
</style>
<path class="st0" d="M9,23c1.1,0,2-0.9,2-2v-4.9h2V21c0,1.1,0.9,2,2,2h4c1.1,0,2-0.9,2-2v-6.9h1.5c1.4,0,2-1.4,1-2.4L12,1L0.5,11.8
	c-1.1,1-0.5,2.4,1,2.4H3V21c0,1.1,0.9,2,2,2H9z M11,14.2c-1.1,0-2,0.9-2,2V21c0,0-4,0-4,0v-7.8c0-0.6-0.4-1-1-1H3l9-8.5l9,8.5h-1
	c-0.6,0-1,0.4-1,1V21h-4v-4.9c0-1.1-0.9-2-2-2H11z"/>
</svg>
