<svg width="24" height="24" viewBox="0 0 24 24" fill="none" xmlns="http://www.w3.org/2000/svg">
<path fill-rule="evenodd" clip-rule="evenodd" d="M5 11.0085C5 9.89925 5.89706 9 7.00586 9H16.9941C18.1019 9 19 9.90195 19 11.0085V18.9915C19 20.1007 18.1029 21 16.9941 21H7.00586C5.89805 21 5 20.098 5 18.9915V11.0085ZM16.5 9V7.5025C16.5 5.00853 14.4853 3 12 3C9.51978 3 7.5 5.01584 7.5 7.5025V9H9.5V7.5025C9.5 6.12225 10.6225 5 12 5C13.3835 5 14.5 6.11588 14.5 7.5025V9H16.5ZM12 16.75C12.9665 16.75 13.75 15.9665 13.75 15C13.75 14.0335 12.9665 13.25 12 13.25C11.0335 13.25 10.25 14.0335 10.25 15C10.25 15.9665 11.0335 16.75 12 16.75Z" fill="#6C6B80"/>
</svg>
