<svg width="24" height="24" viewBox="0 0 24 24" fill="none" xmlns="http://www.w3.org/2000/svg">
<path fill-rule="evenodd" clip-rule="evenodd" d="M16.5 7.5025C16.5 5.00853 14.4853 3 12 3C9.8598 3 8.06245 4.50101 7.60986 6.51032C7.48851 7.0491 7.94772 7.5025 8.5 7.5025C9.05228 7.5025 9.48161 7.03736 9.69706 6.52884C10.0774 5.6311 10.967 5 12 5C13.3835 5 14.5 6.11588 14.5 7.5025V9H7.00586C5.89706 9 5 9.89925 5 11.0085V18.9915C5 20.098 5.89805 21 7.00586 21H16.9941C18.1029 21 19 20.1007 19 18.9915V11.0085C19 9.90195 18.1019 9 16.9941 9H16.5V7.5025ZM8 11C7.44772 11 7 11.4477 7 12V18C7 18.5523 7.44772 19 8 19H16C16.5523 19 17 18.5523 17 18V12C17 11.4477 16.5523 11 16 11H8ZM13.75 15C13.75 15.9665 12.9665 16.75 12 16.75C11.0335 16.75 10.25 15.9665 10.25 15C10.25 14.0335 11.0335 13.25 12 13.25C12.9665 13.25 13.75 14.0335 13.75 15Z" fill="#6C6B80"/>
</svg>
