<svg width="24" height="24" viewBox="0 0 24 24" fill="none" xmlns="http://www.w3.org/2000/svg">
<path fill-rule="evenodd" clip-rule="evenodd" d="M19 3H5C3.89 3 3 3.89 3 5V8C3 8.55228 3.44772 9 4 9C4.55228 9 5 8.55228 5 8V5H19V19H5V16C5 15.4477 4.55228 15 4 15C3.44772 15 3 15.4477 3 16V19C3 20.1046 3.89543 21 5 21H19C20.1046 21 21 20.1046 21 19V5C21 3.89 20.1 3 19 3ZM10.7898 14.8729C10.398 15.2632 10.3996 15.8996 10.7907 16.2907C11.1812 16.6812 11.8166 16.6834 12.2071 16.2929L16.5 12L12.2046 7.70461C11.8151 7.31506 11.1834 7.31434 10.7925 7.70251C10.3996 8.09262 10.3981 8.72811 10.7896 9.11961L12.67 11H4C3.44771 11 3 11.4477 3 12C3 12.5523 3.44772 13 4 13H12.67L10.7898 14.8729Z" fill="#6C6B80"/>
</svg>
