<?xml version="1.0" encoding="utf-8"?>
<!-- Generator: Adobe Illustrator 23.0.2, SVG Export Plug-In . SVG Version: 6.00 Build 0)  -->
<svg version="1.1" id="Layer_1" xmlns="http://www.w3.org/2000/svg" xmlns:xlink="http://www.w3.org/1999/xlink" x="0px" y="0px"
	 viewBox="0 0 24 24" style="enable-background:new 0 0 24 24;" xml:space="preserve">
<style type="text/css">
	.st0{fill:#6C6B80;}
</style>
<path class="st0" d="M14.8,4.9L11.9,2h1l0.5,0.1c0.7,0.1,1.3,0.2,1.9,0.5l0.4,0.2c0.2,0.1,0.3,0.1,0.4,0.2l0.5,0.2
	c1.6,0.9,3,2.1,4,3.7c0.9,1.6,1.4,3.4,1.4,5.3v0L21.9,12l0,0l-1-1c-0.2-2-1.2-3.9-2.6-5.4c-0.7-0.7-1.6-1.3-2.5-1.8L14.8,4.9z
	 M9.9,3.2c-0.1,0-0.3,0-0.4,0.1c-0.1,0-0.2,0.1-0.3,0.2L3.5,9.2C3.4,9.3,3.3,9.4,3.3,9.5C3.2,9.6,3.2,9.7,3.2,9.9
	c0,0.1,0,0.3,0.1,0.4c0.1,0.1,0.1,0.2,0.2,0.3l9.9,9.9c0.1,0.1,0.2,0.2,0.3,0.2c0.1,0,0.3,0.1,0.4,0.1c0.1,0,0.3,0,0.4-0.1
	c0.1,0,0.2-0.1,0.3-0.2l5.7-5.7c0.1-0.1,0.2-0.2,0.2-0.3c0.1-0.1,0.1-0.3,0.1-0.4s0-0.3-0.1-0.4c-0.1-0.1-0.1-0.2-0.2-0.3l-9.9-9.9
	c-0.1-0.1-0.2-0.2-0.3-0.2C10.1,3.2,10,3.2,9.9,3.2z M9.9,5.6l8.5,8.5l-4.2,4.2L5.6,9.9L9.9,5.6z M2.1,12L2.1,12L2,11.9
	c0,1.9,0.5,3.7,1.4,5.3c0.9,1.6,2.3,2.9,4,3.7c0.1,0.1,0.3,0.1,0.5,0.2c0.1,0.1,0.3,0.1,0.4,0.2l0.4,0.2c0.6,0.2,1.3,0.4,1.9,0.5
	l0.5,0.1h1l-2.9-2.9l-1,1c-0.9-0.4-1.8-1-2.5-1.8C4.2,16.9,3.3,15,3.1,13L2.1,12z"/>
</svg>
