<svg width="24" height="24" viewBox="0 0 24 24" fill="none" xmlns="http://www.w3.org/2000/svg">
<path fill-rule="evenodd" clip-rule="evenodd" d="M16 9.5C16 5.91015 13.0899 3 9.5 3C5.91015 3 3 5.91015 3 9.5C3 13.0899 5.91015 16 9.5 16C11.11 16 12.59 15.41 13.73 14.44L14 14.71V15.0858C14 15.351 14.1054 15.6054 14.2929 15.7929L18.2929 19.7929C18.6834 20.1834 19.3166 20.1834 19.7071 19.7929L19.7929 19.7071C20.1834 19.3166 20.1834 18.6834 19.7929 18.2929L15.7929 14.2929C15.6054 14.1054 15.351 14 15.0858 14H14.71L14.44 13.73C15.41 12.59 16 11.11 16 9.5ZM5 9.5C5 7 7 5 9.5 5C12 5 14 7 14 9.5C14 12 12 14 9.5 14C7 14 5 12 5 9.5Z" fill="#6C6B80"/>
</svg>
