<svg width="24" height="24" viewBox="0 0 24 24" fill="none" xmlns="http://www.w3.org/2000/svg">
<path fill-rule="evenodd" clip-rule="evenodd" d="M8 17C8 18.1046 8.89543 19 10 19H15C16.1046 19 17 18.1046 17 17C17 14.3333 17 11.6667 17 9H8C8 11.6667 8 14.3333 8 17ZM15 6L14.2929 5.29289C14.1054 5.10536 13.851 5 13.5858 5H11.4142C11.149 5 10.8946 5.10536 10.7071 5.29289L10 6H8C7.44772 6 7 6.44772 7 7C7 7.55228 7.44772 8 8 8H17C17.5523 8 18 7.55228 18 7C18 6.44772 17.5523 6 17 6H15Z" fill="#6C6B80"/>
</svg>
